<svg id="Layer_1" data-name="Layer 1" xmlns="http://www.w3.org/2000/svg" viewBox="0 0 140 58"><defs><style>.cls-1{fill:#231f20;}.cls-2{fill:#5d7261;}</style></defs><path class="cls-1" d="M73.31,29.68l-1-.77c-3.33-2.6-4.23-3.84-4.23-5.82a3.94,3.94,0,0,1,4.27-4c3.19,0,4.12,1.45,4.33,1.84a5.81,5.81,0,0,1,.45,1.73c0,.28.07.45.28.45s.24-.24.24-.8c0-2.36.14-3.5.14-3.67s-.07-.25-.35-.25a5.55,5.55,0,0,1-1.21-.17A13.35,13.35,0,0,0,73,17.85c-4.4,0-7.17,2.54-7.17,6.25,0,2.35.83,4.5,4.51,7.52l1.56,1.28c3,2.46,4,3.85,4,6.24a4.63,4.63,0,0,1-5,4.61c-2.32,0-4.61-1-5.13-3.53a6.4,6.4,0,0,1-.1-1.29c0-.27,0-.38-.24-.38s-.25.18-.28.56c0,.55-.17,1.94-.17,3.67,0,.94,0,1.08.52,1.32a10.54,10.54,0,0,0,4.64.94,9.14,9.14,0,0,0,5.24-1.46,7.18,7.18,0,0,0,2.94-5.76C78.37,35.05,77.4,32.9,73.31,29.68Z" transform="translate(-5 -8)"/><path class="cls-1" d="M103.61,44.07a4.21,4.21,0,0,1-1.21-.18c-.66-.21-1.49-.59-2.6-3.22C97.93,36.19,93,24,92.48,22.78c-.31-.66-.41-1.08-.73-1.08s-.34.18-.72,1.15L83.85,41.29c-.59,1.49-1.18,2.53-2.57,2.71-.24,0-.69.07-.9.07a.26.26,0,0,0-.27.24c0,.17.2.24.58.24,1.25,0,2.78-.1,3.09-.1s2,.1,2.74.1c.28,0,.45-.07.45-.24s-.07-.24-.31-.24h-.28c-.52,0-1-.21-1-.8a6.05,6.05,0,0,1,.45-2l1.73-4.71a.33.33,0,0,1,.32-.25h7c.18,0,.21,0,.28.18l2.74,6.76a.55.55,0,0,1-.28.8c-.14.06-.21.06-.21.2s.49.18,1.08.21c2.11.07,4.37.07,4.82.07s.69-.07.69-.24S103.78,44.07,103.61,44.07Zm-9.19-9H88.25c-.1,0-.14-.07-.1-.21L91,26.83c.17-.45.35-.45.52,0l3,8.08C94.56,35.05,94.56,35.12,94.42,35.12Z" transform="translate(-5 -8)"/><path class="cls-1" d="M126.49,33.49c-.94,0-2.84.07-3,.07s-2.22-.07-3.61-.07c-.34,0-.48,0-.48.24a.3.3,0,0,0,.24.25,8.5,8.5,0,0,1,1,.07c1.25.24,1.32.58,1.32,3v5.09c0,.56-.24.7-.63.9a7.5,7.5,0,0,1-3.29.56,10.87,10.87,0,0,1-7.8-3.09,11.67,11.67,0,0,1-3.23-8.14c0-3.44,1.25-6.07,3-7.42A9.68,9.68,0,0,1,116.47,23c4,0,6.28,1.18,7,2.29a4.36,4.36,0,0,1,.69,1.94c0,.28,0,.45.21.45s.35-.14.35-.62c0-2.95.17-3.75.17-4.16,0-.14-.07-.28-.38-.28a13.11,13.11,0,0,1-2.46-.31,25.25,25.25,0,0,0-4.68-.49,15.39,15.39,0,0,0-8.12,1.87,11,11,0,0,0-5.09,9.68,11.29,11.29,0,0,0,3.64,8.39c3.4,2.87,7.73,3.15,10,3.15a15.48,15.48,0,0,0,6.49-1.32c.38-.2.41-.24.41-1.59V38.73c0-1.25,0-2.12,0-3.06s.31-1.49,1.14-1.62a3.4,3.4,0,0,1,.76-.07.3.3,0,0,0,.25-.25C127,33.53,126.84,33.49,126.49,33.49Z" transform="translate(-5 -8)"/><path class="cls-1" d="M144.79,40.56c-.17,0-.24.11-.31.45a2.24,2.24,0,0,1-1.39,2.05,10.18,10.18,0,0,1-3.05.31c-3,0-3.57-.38-3.64-2.36,0-.59,0-4,0-5V33.53a.18.18,0,0,1,.21-.21c.52,0,3.78,0,4.61.14,1.18.13,1.46.48,1.56.9a2.58,2.58,0,0,1,.14,1c0,.17.07.28.21.28s.28-.32.28-.56.06-1.32.13-1.91a15.61,15.61,0,0,1,.25-1.63c0-.17-.07-.24-.18-.24s-.24.18-.45.38-.76.35-1.49.42-4.71.07-5.09.07c-.18,0-.18-.11-.18-.31v-8c0-.21,0-.31.18-.31.34,0,3.88,0,4.4.1,1.66.21,2,.42,2.18.9a3.23,3.23,0,0,1,.18,1c0,.24.07.38.24.38s.24-.17.28-.31c.07-.35.13-1.66.17-1.94.07-.83.24-1.18.24-1.39s0-.28-.14-.28-.27.11-.41.14-.8.14-1.39.18-7.07,0-7.28,0-2.15-.07-3.54-.07c-.34,0-.48.07-.48.24a.3.3,0,0,0,.24.24c.28,0,.8,0,1,.07,1,.14,1.18.63,1.25,1.63s.07,1.77.07,6.35V36a58.07,58.07,0,0,1-.18,6.38c-.13.86-.2,1.45-.79,1.56-.28,0-.66.14-.94.14a.23.23,0,0,0-.24.24c0,.17.17.24.48.24.49,0,1.18,0,1.77-.07s1.25,0,1.32,0c.45,0,1.25,0,2.53.07s3,.1,5.31.1c1.17,0,1.49,0,1.69-.76A23.38,23.38,0,0,0,145,41C145,40.81,145,40.56,144.79,40.56Z" transform="translate(-5 -8)"/><path class="cls-1" d="M21.83,28.64c.23.62.47,1.23.73,1.84q.21.49.45,1s.63-.77,1.19-1.38,1-1.09,1-1.09c-.12-.25-.23-.5-.34-.75s-.17-.41-.25-.62l.61.26,1.4.65a34.44,34.44,0,0,1,9.23,6.58c.35.35.69.71,1,1.07,0,0,.49-.56,1.05-1.29s.95-1.31.95-1.31l-.74-.76a34.4,34.4,0,0,0-9.3-6.64l-1.39-.64c-.6-.26-1.22-.5-1.84-.73s-1-.35-1.51-.51a34.11,34.11,0,0,0-3.77-1,36.46,36.46,0,0,0,.95,3.77C21.47,27.63,21.65,28.14,21.83,28.64Z" transform="translate(-5 -8)"/><path class="cls-1" d="M46.19,45.37c-.22-.62-.47-1.24-.73-1.84-.78.71-1.57,1.45-2.34,2.23l.25.6-.6-.25c-.48-.21-.94-.42-1.41-.65a34.44,34.44,0,0,1-9.23-6.58c-.35-.36-.7-.72-1-1.08,0,0-.48.62-1,1.22s-1,1.37-1,1.37l.75.78a34.6,34.6,0,0,0,9.31,6.64c.46.22.92.44,1.39.64s1.22.5,1.84.73,1,.35,1.51.51a34.69,34.69,0,0,0,3.77,1,37.12,37.12,0,0,0-.95-3.77C46.55,46.37,46.38,45.87,46.19,45.37Z" transform="translate(-5 -8)"/><path class="cls-1" d="M34.82,39.9s.61.55,1.22,1,1.36,1,1.36,1l.77-.74a34.64,34.64,0,0,0,6.65-9.31l-.34-.31c-.68-.61-1.35-1.25-2-1.9a34.44,34.44,0,0,1-6.58,9.23C35.54,39.23,35.18,39.57,34.82,39.9Z" transform="translate(-5 -8)"/><path class="cls-1" d="M45.28,25.74c.47.47.94.93,1.42,1.38a34.11,34.11,0,0,0,1-3.77,34.11,34.11,0,0,0-3.77,1C44.34,24.79,44.81,25.27,45.28,25.74Z" transform="translate(-5 -8)"/><path class="cls-1" d="M33.2,34.1,31.83,33c-.72-.58-1.22-.91-1.22-.91l-.77.74a34.43,34.43,0,0,0-6.64,9.32l.34.31c.68.61,1.35,1.25,2,1.89a34.22,34.22,0,0,1,6.58-9.23C32.48,34.77,32.84,34.43,33.2,34.1Z" transform="translate(-5 -8)"/><path class="cls-1" d="M21.31,46.89a36.28,36.28,0,0,0-.95,3.76,36.28,36.28,0,0,0,3.76-.95c-.45-.49-.92-1-1.38-1.43S21.79,47.34,21.31,46.89Z" transform="translate(-5 -8)"/><path class="cls-2" d="M52.09,46.73c-.36-1.16-.78-2.31-1.24-3.45q-.29-.69-.6-1.38-.39-.87-.81-1.71c-.22-.44-.46-.87-.69-1.3s-.31-.56-.47-.83c0,0-.42.72-1,1.54-.33.46-.65.89-.86,1.17l-.27.36c.21.42.41.84.6,1.27q.41.89.75,1.8c.19.49.37,1,.53,1.47A36.82,36.82,0,0,1,49.17,50c.81-.84,1.58-1.69,2.31-2.53Z" transform="translate(-5 -8)"/><path class="cls-2" d="M51.45,54.45c-.67.67-1.36,1.33-2.05,2a43.07,43.07,0,0,0,4.55.51,43.07,43.07,0,0,0-.51-4.55C52.79,53.09,52.12,53.78,51.45,54.45Z" transform="translate(-5 -8)"/><path class="cls-2" d="M41.21,50.47q-.91-.34-1.8-.75c-.46-.21-.91-.42-1.36-.65a36.09,36.09,0,0,1-9.35-6.76c-.18-.18-.36-.36-.53-.55,0,0-.56.89-.94,1.57s-.71,1.37-.71,1.37a42.32,42.32,0,0,0,9.37,7c.43.24.87.47,1.31.69s1.13.57,1.71.83l1.38.59c1.14.47,2.29.88,3.45,1.24l.72-.61c.83-.73,1.68-1.5,2.52-2.31A36.82,36.82,0,0,1,42.68,51C42.19,50.83,41.7,50.66,41.21,50.47Z" transform="translate(-5 -8)"/><path class="cls-2" d="M16.57,19.56c.67-.68,1.36-1.34,2.06-2a43.56,43.56,0,0,0-4.56-.51,43.56,43.56,0,0,0,.51,4.56C15.23,20.92,15.89,20.23,16.57,19.56Z" transform="translate(-5 -8)"/><path class="cls-2" d="M15.93,27.27c.36,1.17.78,2.32,1.24,3.45.19.47.39.93.6,1.39s.53,1.14.81,1.7.46.87.7,1.31l.46.83s.23-.39,1.05-1.57c.36-.52.62-.88.79-1.11l.31-.41q-.32-.61-.6-1.26-.41-.88-.75-1.8c-.19-.48-.36-1-.53-1.47A36.29,36.29,0,0,1,18.85,24c-.81.85-1.58,1.7-2.31,2.53Z" transform="translate(-5 -8)"/><path class="cls-2" d="M26.81,23.53q.92.34,1.8.75c.46.21.91.42,1.36.65a36.09,36.09,0,0,1,9.35,6.76l.52.53s.54-.88.95-1.58.71-1.34.71-1.34a42.32,42.32,0,0,0-9.37-7c-.43-.24-.87-.47-1.3-.69s-1.14-.56-1.71-.82-.92-.41-1.39-.6c-1.13-.46-2.28-.88-3.45-1.24l-.71.61c-.84.73-1.68,1.5-2.53,2.31A36.29,36.29,0,0,1,25.34,23C25.84,23.17,26.33,23.34,26.81,23.53Z" transform="translate(-5 -8)"/><path class="cls-2" d="M42.68,23A36.65,36.65,0,0,1,47,21.84c.52-.11,1-.21,1.56-.29l.2,0,.91-.15-.15.91,0,.2c-.09.52-.18,1-.29,1.56A36.65,36.65,0,0,1,48,28.33l.43.38c.81.71,1.61,1.39,2.41,2,.46-1.14.88-2.29,1.24-3.45.17-.56.34-1.11.48-1.67.2-.73.37-1.46.53-2.2s.24-1.19.34-1.79A43.56,43.56,0,0,0,54,17.06a43.56,43.56,0,0,0-4.56.51c-.6.1-1.2.22-1.79.34-.74.16-1.47.33-2.2.52-.56.15-1.12.31-1.67.49-1.16.36-2.31.78-3.44,1.24.62.79,1.29,1.6,2,2.41Z" transform="translate(-5 -8)"/><path class="cls-2" d="M39.32,42.31l-.54.52s.88.55,1.47.9,1.46.76,1.46.76a42.16,42.16,0,0,0,7-9.37L48.55,35c-.81-.62-1.64-1.29-2.47-2A36.09,36.09,0,0,1,39.32,42.31Z" transform="translate(-5 -8)"/><path class="cls-2" d="M37.78,24.62c-.62-.73-1.2-1.46-1.74-2.16l-.15-.19-.84.47s.72.44,1.44.94C36.94,24,37.45,24.36,37.78,24.62Z" transform="translate(-5 -8)"/><path class="cls-2" d="M30.25,49.4c.61.73,1.19,1.45,1.72,2.14l.15.2.83-.47s-1-.67-1.55-1C31.07,50,30.58,49.66,30.25,49.4Z" transform="translate(-5 -8)"/><path class="cls-2" d="M26.31,29.51a42.5,42.5,0,0,0-7,9.38l.2.14c.8.62,1.63,1.3,2.47,2a36.25,36.25,0,0,1,6.76-9.35l.54-.53s-.6-.37-1.44-.86S26.31,29.51,26.31,29.51Z" transform="translate(-5 -8)"/><path class="cls-2" d="M25.34,51A37.36,37.36,0,0,1,21,52.16c-.52.11-1,.21-1.55.29l-.21,0-.9.15.15-.9,0-.21c.08-.52.18-1,.29-1.55A36.82,36.82,0,0,1,20,45.67l-.43-.38c-.81-.71-1.62-1.38-2.41-2-.47,1.14-.88,2.29-1.25,3.45-.17.56-.33,1.11-.48,1.67-.19.73-.37,1.46-.52,2.2-.13.59-.24,1.19-.34,1.79a43.37,43.37,0,0,0-.51,4.55,43.67,43.67,0,0,0,4.55-.51c.6-.1,1.19-.21,1.79-.34s1.47-.33,2.2-.52c.56-.15,1.12-.31,1.67-.48,1.16-.37,2.31-.78,3.45-1.25-.63-.79-1.3-1.6-2-2.4Z" transform="translate(-5 -8)"/><path class="cls-1" d="M14.09,34.67,13.6,35a5.34,5.34,0,0,1,.4,1.9q.51-.27,1.05-.6c.75-.46,1.54-1,2.35-1.57l-.11-.22c-.24-.46-.47-.94-.71-1.47C15.72,33.63,14.88,34.19,14.09,34.67Z" transform="translate(-5 -8)"/><path class="cls-1" d="M31.71,20.39A31.18,31.18,0,0,0,33.88,17,5.34,5.34,0,0,1,32,16.6l-.28.48c-.49.79-1.05,1.63-1.68,2.49.5.23,1,.46,1.47.71Z" transform="translate(-5 -8)"/><path class="cls-1" d="M11,31.58A42.46,42.46,0,0,1,14.3,27l1.14-1.36q1.44-1.66,3.09-3.33l.38-.39.38-.37c1.1-1.1,2.22-2.13,3.33-3.09.45-.39.91-.77,1.36-1.14A42.46,42.46,0,0,1,28.59,14l.48-.28a5.34,5.34,0,0,1-.4-1.9c-.33.18-.68.38-1,.6a47.3,47.3,0,0,0-5.86,4.32c-.45.39-.9.78-1.35,1.19-.94.85-1.89,1.74-2.82,2.67s-1.82,1.87-2.68,2.83l-1.19,1.35A42.24,42.24,0,0,0,8.8,31.67a5.29,5.29,0,0,1,1.9.4Z" transform="translate(-5 -8)"/><path class="cls-2" d="M10.7,41.93a5.34,5.34,0,0,1-1.9.4q.27.51.6,1.05a46,46,0,0,0,4.33,5.86c.1-.4.2-.81.31-1.22l.26-1A44.12,44.12,0,0,1,11,42.42Z" transform="translate(-5 -8)"/><path class="cls-2" d="M24,56.71,23,57l-1.22.31a42.19,42.19,0,0,0,6.9,4.93,5.29,5.29,0,0,1,.4-1.9L28.58,60A43.45,43.45,0,0,1,24,56.71Z" transform="translate(-5 -8)"/><path class="cls-2" d="M32,57.4A5.34,5.34,0,0,1,33.87,57a31.18,31.18,0,0,0-2.17-3.4c-.28-.39-.57-.78-.88-1.18-.69-.9-1.43-1.81-2.21-2.71l-.11-.12-.91-1-.11-.13c-.72-.79-1.47-1.58-2.23-2.34l-.18-.18-.17-.17c-.76-.76-1.54-1.5-2.34-2.23l-.13-.11c-.33-.31-.67-.61-1-.9l-.13-.12c-.9-.78-1.81-1.52-2.71-2.21-.39-.31-.79-.6-1.18-.88A30.64,30.64,0,0,0,14,37.14a5.34,5.34,0,0,1-.4,1.9l.48.29c.8.48,1.63,1,2.5,1.67l1.18.9c.91.7,1.84,1.48,2.78,2.3l.13.12q.51.45,1,.93l.14.12c.65.6,1.29,1.23,1.94,1.87s1.27,1.29,1.87,1.94l.12.14q.48.51.93,1l.12.13c.82.94,1.59,1.87,2.3,2.78l.9,1.18c.62.86,1.19,1.7,1.67,2.49Z" transform="translate(-5 -8)"/><path class="cls-1" d="M57,42.43a42.22,42.22,0,0,1-3.3,4.6c-.37.45-.75.91-1.14,1.36-1,1.11-2,2.23-3.09,3.34-.12.13-.25.26-.38.38s-.25.25-.37.37c-1.11,1.1-2.23,2.13-3.33,3.09-.46.39-.91.77-1.37,1.14A44.06,44.06,0,0,1,39.43,60l-.49.28a5.13,5.13,0,0,1,.39,1.91l1.06-.61a47.46,47.46,0,0,0,5.86-4.33l1.36-1.19c.94-.84,1.88-1.73,2.81-2.67s1.82-1.86,2.68-2.82c.4-.45.8-.9,1.19-1.36a42.24,42.24,0,0,0,4.93-6.91,5.38,5.38,0,0,1-1.91-.39C57.22,42.1,57.13,42.26,57,42.43Z" transform="translate(-5 -8)"/><path class="cls-1" d="M53,37.75c-.76.46-1.54,1-2.35,1.56l.12.22c.23.46.46.95.7,1.47.86-.62,1.69-1.18,2.49-1.67l.48-.28a5.34,5.34,0,0,1-.4-1.9C53.67,37.34,53.33,37.53,53,37.75Z" transform="translate(-5 -8)"/><path class="cls-1" d="M36.31,53.61A31,31,0,0,0,34.15,57a5.13,5.13,0,0,1,1.9.4l.28-.48c.48-.8,1.05-1.63,1.68-2.5-.49-.23-1-.46-1.47-.71Z" transform="translate(-5 -8)"/><path class="cls-2" d="M36.05,16.59a5.13,5.13,0,0,1-1.9.4c.19.34.38.69.61,1.06.45.75,1,1.53,1.56,2.34.28.39.57.78.87,1.18.68.89,1.42,1.8,2.21,2.71l.11.13.91,1,.11.12c.71.78,1.46,1.57,2.23,2.34l.18.19c.06.06.12.11.17.17.77.76,1.55,1.5,2.35,2.23l.12.11c.34.3.68.61,1,.9a.69.69,0,0,0,.13.11c.9.79,1.81,1.53,2.7,2.22.4.3.79.6,1.19.88A30.93,30.93,0,0,0,54,36.86a5.13,5.13,0,0,1,.4-1.9l-.47-.28c-.8-.48-1.64-1-2.5-1.68-.39-.28-.79-.58-1.19-.89-.9-.71-1.83-1.48-2.77-2.3l-.13-.12-1-.93-.13-.12c-.65-.6-1.3-1.23-1.94-1.87s-1.27-1.3-1.88-1.95l-.12-.14c-.32-.34-.62-.68-.93-1l-.12-.13c-.82-.94-1.59-1.87-2.3-2.77-.31-.4-.61-.8-.89-1.19-.63-.86-1.19-1.69-1.67-2.49Z" transform="translate(-5 -8)"/><path class="cls-2" d="M57.31,32.06a5.38,5.38,0,0,1,1.91-.39,42.24,42.24,0,0,0-4.93-6.91c-.1.41-.2.82-.31,1.23l-.26,1A42.51,42.51,0,0,1,57,31.59Z" transform="translate(-5 -8)"/><path class="cls-2" d="M44,17.29,45,17l1.22-.31a41.81,41.81,0,0,0-6.91-4.93,5.28,5.28,0,0,1-.39,1.9l.49.3A41.28,41.28,0,0,1,44,17.29Z" transform="translate(-5 -8)"/><path class="cls-2" d="M31.41,14.26a3.68,3.68,0,0,0,1.34.85,4,4,0,0,0,.57.16,3.91,3.91,0,0,0,.68.06,4,4,0,0,0,.7-.06,4.11,4.11,0,0,0,.57-.17,3.57,3.57,0,0,0,1.33-.84,3.8,3.8,0,0,0,.85-1.35,3.69,3.69,0,0,0-.85-3.84,3.66,3.66,0,0,0-6,3.84A3.8,3.8,0,0,0,31.41,14.26Z" transform="translate(-5 -8)"/><path class="cls-2" d="M36.6,59.74a3.57,3.57,0,0,0-1.33-.84,4.23,4.23,0,0,0-.58-.17,4,4,0,0,0-.69-.06,3.91,3.91,0,0,0-.68.06,3.76,3.76,0,0,0-1.91,1,3.67,3.67,0,0,0,5.19,5.19,3.72,3.72,0,0,0,1-1.88,3.6,3.6,0,0,0-.15-1.95A3.75,3.75,0,0,0,36.6,59.74Z" transform="translate(-5 -8)"/><path class="cls-1" d="M60,33.4a4.15,4.15,0,0,0-.7-.07,3.77,3.77,0,0,0-1.24.22,3.65,3.65,0,0,0-1.36.86,3.57,3.57,0,0,0-.84,1.33,4.23,4.23,0,0,0-.17.58,3.71,3.71,0,0,0,0,1.37,3.14,3.14,0,0,0,.16.58,3.8,3.8,0,0,0,.84,1.32,3.65,3.65,0,0,0,1.36.86,3.77,3.77,0,0,0,1.24.22,4.15,4.15,0,0,0,.7-.07,3.67,3.67,0,0,0,1.89-6.19A3.62,3.62,0,0,0,60,33.4Z" transform="translate(-5 -8)"/><path class="cls-1" d="M11.26,39.59a3.7,3.7,0,0,0,1-1.9,3.54,3.54,0,0,0-.16-1.94,3.63,3.63,0,0,0-2.19-2.19,3.59,3.59,0,0,0-1.25-.23A4,4,0,0,0,8,33.4a3.67,3.67,0,0,0,0,7.2,4.05,4.05,0,0,0,.7.07,3.54,3.54,0,0,0,1.24-.23A3.4,3.4,0,0,0,11.26,39.59Z" transform="translate(-5 -8)"/><path class="cls-2" d="M87.22,52.52c-1.25-.27-1.54-.56-1.54-1.11s.47-.92,1.2-.92a2.54,2.54,0,0,1,1.64.61l.37-.49a3,3,0,0,0-2-.7A1.67,1.67,0,0,0,85,51.47c0,.94.6,1.36,1.9,1.64s1.48.55,1.48,1.09-.51,1-1.27,1a2.72,2.72,0,0,1-1.94-.8l-.4.47a3.32,3.32,0,0,0,2.32.91,1.71,1.71,0,0,0,1.93-1.62C89.06,53.26,88.48,52.8,87.22,52.52Z" transform="translate(-5 -8)"/><polygon class="cls-2" points="93.22 44.83 91.31 42 90.53 42 92.89 45.42 92.89 47.67 93.54 47.67 93.54 45.41 95.89 42 95.15 42 93.22 44.83"/><polygon class="cls-2" points="107.07 46.54 103.5 42 102.9 42 102.9 47.67 103.53 47.67 103.53 43.02 107.19 47.67 107.7 47.67 107.7 42 107.07 42 107.07 46.54"/><path class="cls-2" d="M124.73,54.35a2.45,2.45,0,0,1-1.83.82,2.24,2.24,0,0,1-2.2-2.35,2.22,2.22,0,0,1,2.2-2.33,2.44,2.44,0,0,1,1.78.78l.44-.47a3,3,0,0,0-2.21-.9,2.93,2.93,0,0,0,0,5.86,3,3,0,0,0,2.27-1Z" transform="translate(-5 -8)"/></svg>